<?xml version="1.0" encoding="utf-8"?>
<!-- Generator: Adobe Illustrator 16.0.0, SVG Export Plug-In . SVG Version: 6.00 Build 0)  -->
<!DOCTYPE svg PUBLIC "-//W3C//DTD SVG 1.1//EN" "http://www.w3.org/Graphics/SVG/1.1/DTD/svg11.dtd">
<svg version="1.1"
	 id="Layer_1" inkscape:version="0.92.1 r15371" sodipodi:docname="rasl_folder.svg" xmlns:rdf="http://www.w3.org/1999/02/22-rdf-syntax-ns#" xmlns:svg="http://www.w3.org/2000/svg" xmlns:dc="http://purl.org/dc/elements/1.1/" xmlns:inkscape="http://www.inkscape.org/namespaces/inkscape" xmlns:sodipodi="http://sodipodi.sourceforge.net/DTD/sodipodi-0.dtd" xmlns:cc="http://creativecommons.org/ns#"
	 xmlns="http://www.w3.org/2000/svg" xmlns:xlink="http://www.w3.org/1999/xlink" x="0px" y="0px" width="60px" height="60px"
	 viewBox="0 0 60 60" enable-background="new 0 0 60 60" xml:space="preserve">
<sodipodi:namedview  id="namedview5" fit-margin-bottom="0" fit-margin-right="0" inkscape:current-layer="Layer_1" inkscape:window-maximized="1" inkscape:window-y="27" inkscape:window-x="0" inkscape:window-height="1016" inkscape:window-width="1920" inkscape:pageshadow="2" inkscape:pageopacity="0" bordercolor="#666666" showgrid="false" gridtolerance="10" inkscape:cx="28.715645" pagecolor="#ffffff" borderopacity="1" fit-margin-top="0" objecttolerance="10" inkscape:cy="50.560135" inkscape:zoom="4.945865" guidetolerance="10" fit-margin-left="0">
	</sodipodi:namedview>
<g>
	<circle fill="none" stroke="#231F20" stroke-width="3" stroke-miterlimit="10" cx="30" cy="30" r="26.082"/>
	<g>
		<path d="M33.695,30.016c-2.165,2.005-2.517,2.579-2.517,3.949v1.496h-2.865v-1.752c0-1.145,0.223-1.879,0.891-2.77
			c0.539-0.731,0.539-0.731,2.421-2.421c1.687-1.498,2.386-2.737,2.386-4.202c0-2.166-1.624-3.631-4.074-3.631
			c-2.834,0-4.109,1.496-4.109,4.968h-2.705c0-4.905,2.388-7.454,6.973-7.454c4.142,0,6.783,2.388,6.783,6.116
			C36.878,26.417,36.084,27.85,33.695,30.016z M28.313,41.799v-3.312h2.865v3.312H28.313z"/>
	</g>
</g>
</svg>
