<?xml version="1.0" encoding="utf-8"?>
<!-- Generator: Adobe Illustrator 16.0.0, SVG Export Plug-In . SVG Version: 6.00 Build 0)  -->
<!DOCTYPE svg PUBLIC "-//W3C//DTD SVG 1.1//EN" "http://www.w3.org/Graphics/SVG/1.1/DTD/svg11.dtd">
<svg version="1.1" id="Layer_1" xmlns="http://www.w3.org/2000/svg" xmlns:xlink="http://www.w3.org/1999/xlink" x="0px" y="0px"
	 width="147.76px" height="123.32px" viewBox="0 0 147.76 123.32" enable-background="new 0 0 147.76 123.32" xml:space="preserve">
<polygon points="65.496,55.521 63.799,61.643 67.116,61.643 "/>
<path d="M46.18,50.299c0.892,0,1.715,0.187,2.469,0.555c0.755,0.369,1.402,0.85,1.942,1.439s0.965,1.271,1.273,2.032
	c0.309,0.763,0.463,1.529,0.463,2.302c0,1.063-0.231,2.055-0.694,2.972c-0.463,0.918-1.106,1.668-1.929,2.251l4.115,6.713h-5.658
	l-3.473-5.606h-1.877v5.606h-5.016V50.299H46.18z M63.464,50.299h4.064l6.79,18.264H69.02l-1.106-3.575h-4.861l-1.081,3.575h-5.324
	L63.464,50.299z M86.497,62.813c-0.215-0.183-0.512-0.339-0.887-0.478c-0.379-0.137-0.813-0.272-1.299-0.412
	c-0.49-0.137-1.01-0.3-1.559-0.487c-0.807-0.273-1.501-0.568-2.083-0.889c-0.583-0.315-1.063-0.677-1.44-1.079
	s-0.654-0.861-0.834-1.377c-0.182-0.515-0.271-1.104-0.271-1.773c0-1.011,0.186-1.902,0.555-2.675
	c0.367-0.771,0.869-1.415,1.504-1.931c0.633-0.514,1.358-0.902,2.174-1.17c0.813-0.267,1.677-0.397,2.584-0.397
	c0.67,0,1.32,0.063,1.955,0.191c0.633,0.129,1.248,0.292,1.838,0.489c0.594,0.196,1.146,0.41,1.66,0.644
	c0.516,0.23,0.979,0.449,1.39,0.655l-2.16,4.143c-0.515-0.311-1.046-0.583-1.597-0.824c-0.463-0.205-0.98-0.397-1.555-0.577
	c-0.576-0.181-1.137-0.271-1.686-0.271c-0.446,0-0.801,0.068-1.067,0.204c-0.266,0.14-0.399,0.37-0.399,0.695
	c0,0.239,0.078,0.438,0.232,0.591c0.154,0.155,0.377,0.296,0.668,0.426c0.293,0.13,0.648,0.254,1.068,0.373s0.896,0.267,1.428,0.438
	c0.84,0.258,1.598,0.54,2.276,0.85c0.677,0.311,1.255,0.674,1.735,1.095c0.479,0.42,0.85,0.93,1.105,1.528
	c0.257,0.603,0.387,1.329,0.387,2.188c0,1.098-0.201,2.02-0.604,2.766c-0.403,0.745-0.935,1.342-1.595,1.788
	c-0.66,0.444-1.406,0.768-2.237,0.964c-0.832,0.196-1.668,0.296-2.509,0.296c-0.668,0-1.354-0.052-2.059-0.153
	c-0.701-0.104-1.4-0.248-2.096-0.438c-0.694-0.188-1.363-0.411-2.006-0.668c-0.645-0.259-1.239-0.55-1.788-0.875l2.159-4.396
	c0.602,0.377,1.228,0.711,1.879,1.003c0.549,0.257,1.171,0.486,1.863,0.692c0.695,0.206,1.402,0.311,2.123,0.311
	c0.549,0,0.931-0.073,1.146-0.22c0.214-0.146,0.319-0.339,0.319-0.579C86.817,63.211,86.711,62.994,86.497,62.813 M97.003,50.299
	h5.016V64.19h8.282v4.372H97.003V50.299z M99.667,122.764L136.074,11.25L0.944,53.369L99.667,122.764z"/>
<path d="M46.836,58.067c0.266-0.343,0.399-0.822,0.399-1.439c0-0.635-0.155-1.118-0.463-1.454c-0.309-0.334-0.618-0.501-0.926-0.501
	h-3.035v3.909h3.163C46.283,58.582,46.57,58.411,46.836,58.067"/>
<polygon points="134.474,7.899 68.984,0 1.426,49.369 "/>
<polygon points="0,57.196 28.492,97.435 93.427,122.87 "/>
<polygon points="139.433,12.799 103.351,123.32 147.76,84.36 "/>
</svg>
